<svg width="507" height="158" viewBox="0 0 507 158" fill="none" xmlns="http://www.w3.org/2000/svg">
<path d="M61.0361 55.5186C59.6872 55.4463 58.3743 55.3499 57.0977 55.2295C55.8451 55.085 54.7008 54.8923 53.665 54.6514C52.6292 54.4105 51.75 54.0973 51.0273 53.7119C50.3288 53.3024 49.8711 52.7965 49.6543 52.1943L29.6729 2.83691C29.2633 2.861 28.8659 3.02962 28.4805 3.34277C28.3118 6.32975 27.3965 8.72656 25.7344 10.5332L26.5654 12.665L11.3174 51.002C10.3538 53.4108 7.39095 54.9163 2.42871 55.5186C2.28418 55.8558 2.21191 56.1569 2.21191 56.4219C2.21191 56.7109 2.28418 57 2.42871 57.2891C5.1748 57.1927 7.37891 57.1204 9.04102 57.0723C10.7272 57.0241 11.8835 57 12.5098 57C13.0638 57 14.3164 57.0241 16.2676 57.0723C18.2428 57.1204 20.9167 57.1927 24.2891 57.2891C24.4336 57 24.5059 56.7109 24.5059 56.4219C24.5059 56.1569 24.4336 55.8558 24.2891 55.5186C22.2897 55.3258 20.6637 55.1211 19.4111 54.9043C18.1585 54.6634 17.1829 54.4105 16.4844 54.1455C15.7858 53.8805 15.3161 53.5915 15.0752 53.2783C14.8343 52.9411 14.7139 52.5677 14.7139 52.1582C14.7139 51.8932 14.762 51.6283 14.8584 51.3633L20.1338 38.1387C22.8076 38.0905 24.9635 38.0544 26.6016 38.0303C28.2637 38.0062 29.4079 37.9941 30.0342 37.9941C31.4072 37.9941 32.6237 38.0062 33.6836 38.0303C34.7676 38.0303 35.695 38.0423 36.4658 38.0664L41.7051 51.3633C41.8255 51.7246 41.8857 52.0016 41.8857 52.1943C41.8857 52.8447 41.5485 53.4229 40.874 53.9287C40.2236 54.4346 39.4167 54.7839 38.4531 54.9766L34.5508 55.5186C34.4062 55.8558 34.334 56.1569 34.334 56.4219C34.334 56.7109 34.4062 57 34.5508 57.2891C36.5983 57.2168 38.6699 57.1566 40.7656 57.1084C42.8854 57.0602 45.0534 57.0361 47.2695 57.0361C49.4857 57.0361 51.7259 57.0602 53.9902 57.1084C56.2786 57.1566 58.6273 57.2168 61.0361 57.2891C61.2048 56.9518 61.2891 56.6628 61.2891 56.4219C61.2891 56.2773 61.265 56.1328 61.2168 55.9883C61.1686 55.8438 61.1084 55.6872 61.0361 55.5186ZM30.0342 35.1758C26.5413 35.1758 23.6628 35.1276 21.3984 35.0312L28.2637 17.3262H28.4082L35.3096 35.1035C34.0088 35.1517 32.2503 35.1758 30.0342 35.1758ZM28.3359 21.1201L23.5303 33.6221C26.445 33.7666 29.6488 33.7907 33.1416 33.6943L28.3359 21.1201ZM62.1562 54.1816C62.7585 55.627 62.7344 57.1566 62.084 58.7705H33.4307C32.8525 57.1084 32.8525 55.5788 33.4307 54.1816C36.0563 54.0371 37.9111 53.7721 38.9951 53.3867C40.0791 52.9772 40.4525 52.3268 40.1152 51.4355L35.3818 39.4756C30.9255 39.307 26.1559 39.3551 21.0732 39.6201L16.4121 51.5801C16.2676 51.9896 16.376 52.363 16.7373 52.7002C17.1227 53.0133 17.737 53.2663 18.5801 53.459C19.4232 53.6517 20.4108 53.8083 21.543 53.9287C22.6751 54.0492 23.9518 54.1335 25.373 54.1816C25.9753 55.627 25.9512 57.1566 25.3008 58.7705C17.3997 58.4814 9.43848 58.4814 1.41699 58.7705C0.766602 57.1566 0.742513 55.627 1.34473 54.1816C6.30697 53.6035 9.11328 52.5195 9.76367 50.9297L25.0117 12.5928C24.9154 12.4001 24.7227 11.9665 24.4336 11.292C24.1686 10.5934 24.012 10.1357 23.9639 9.91895C25.8428 8.01595 26.8786 5.55892 27.0713 2.54785C29.1911 1.51204 31.6842 0.921875 34.5508 0.777344L54.8213 51.0742C55.279 52.2064 56.0016 52.9652 56.9893 53.3506C57.9769 53.7119 59.6992 53.9889 62.1562 54.1816ZM86.4736 28.8887C89.3161 28.8887 91.472 30.0449 92.9414 32.3574C94.4349 34.6699 95.1816 37.6087 95.1816 41.1738C95.1816 46.401 94.2542 50.1227 92.3994 52.3389C90.5687 54.555 88.5693 55.6631 86.4014 55.6631C82.2581 55.6631 79.3675 54.1335 77.7295 51.0742V32.2852C80.4997 30.0208 83.4144 28.8887 86.4736 28.8887ZM93.7002 41.1738C93.7002 38.3555 93.1823 35.9587 92.1465 33.9834C91.1107 32.0081 89.6051 30.8519 87.6299 30.5146C85.9678 30.7555 84.3659 31.5625 82.8242 32.9355V50.8574C83.7637 52.6882 85.2692 53.7721 87.3408 54.1094C89.0752 53.7721 90.5687 52.5918 91.8213 50.5684C93.0739 48.5449 93.7002 45.4134 93.7002 41.1738ZM65.2275 28.9609H65.2998C68.5518 29.1055 70.8643 29.5993 72.2373 30.4424C72.2373 48.8942 72.2132 62.5042 72.165 71.2725C72.1169 73.055 70.0693 74.2233 66.0225 74.7773C65.8779 75.3073 65.8779 75.8734 66.0225 76.4756C72.3337 76.1624 79.223 76.1624 86.6904 76.4756C86.9795 75.9215 86.9795 75.3555 86.6904 74.7773C80.9574 74.2233 78.0667 73.055 78.0186 71.2725L77.8018 56.7832C80.1624 57.6263 82.6797 58.0479 85.3535 58.0479C88.1719 58.0479 90.653 57.4818 92.7969 56.3496C94.9408 55.1934 96.6149 53.6999 97.8193 51.8691C99.0238 50.0143 99.9271 48.0391 100.529 45.9434C101.156 43.8477 101.469 41.6917 101.469 39.4756C101.469 34.7783 100.397 31.0566 98.2529 28.3105C96.109 25.5404 93.3389 24.1553 89.9424 24.1553C85.7992 24.1553 81.7282 25.9258 77.7295 29.4668V25.2393C77.5368 24.8538 77.1152 24.5407 76.4648 24.2998C73.2611 25.8174 69.5394 26.805 65.2998 27.2627C65.1071 27.7926 65.083 28.3587 65.2275 28.9609ZM64.1074 25.7812C68.8047 25.3717 73.0443 24.2035 76.8262 22.2764C79.4518 22.4932 81.403 23.2881 82.6797 24.6611C84.944 23.3363 88.2321 22.6738 92.5439 22.6738C96.6872 22.6738 100.06 24.1914 102.661 27.2266C105.287 30.2617 106.6 34.3447 106.6 39.4756C106.6 41.8844 106.238 44.221 105.516 46.4854C104.793 48.7497 103.733 50.8815 102.336 52.8809C100.939 54.8802 98.9876 56.4821 96.4824 57.6865C94.0013 58.915 91.1589 59.5293 87.9551 59.5293C85.8835 59.5293 84.1973 59.4811 82.8965 59.3848L83.1133 71.2002C83.1615 72.1396 84.7995 72.8864 88.0273 73.4404C88.6536 74.8617 88.6536 76.3672 88.0273 77.957C78.3919 77.5957 70.6956 77.5355 64.9385 77.7764C64.3844 76.2588 64.3844 74.8135 64.9385 73.4404C68.7204 72.9346 70.6354 72.1878 70.6836 71.2002L70.7559 31.3096C69.1901 30.8278 66.998 30.5146 64.1797 30.3701C63.5534 28.9248 63.5293 27.3952 64.1074 25.7812ZM125.822 36.6572C126.424 34.4411 127.665 32.2852 129.544 30.1895C131.423 28.0938 133.338 27.0459 135.289 27.0459C137.577 27.0459 138.722 27.7806 138.722 29.25C138.722 30.5749 138.095 31.418 136.843 31.7793C136.506 32.2611 136.506 32.8271 136.843 33.4775C138.144 33.4775 139.203 33.0801 140.022 32.2852C140.866 31.4902 141.287 30.3822 141.287 28.9609C141.287 27.4674 140.829 26.2992 139.914 25.4561C139.023 24.5889 137.854 24.1553 136.409 24.1553C134.53 24.1553 132.639 24.9141 130.736 26.4316C128.857 27.9251 127.219 29.5993 125.822 31.4541V25.2393C125.63 24.8538 125.22 24.5407 124.594 24.2998C121.366 25.8174 117.632 26.805 113.393 27.2627C113.248 27.8408 113.248 28.4069 113.393 28.9609C116.645 29.1055 118.969 29.5993 120.366 30.4424C120.559 39.4274 120.535 46.6299 120.294 52.0498C120.246 53.8324 118.198 54.9886 114.151 55.5186C113.79 56.1689 113.79 56.735 114.151 57.2168C120.463 56.9277 127.34 56.9277 134.783 57.2168C135.12 56.735 135.12 56.1689 134.783 55.5186C129.074 54.9886 126.196 53.8324 126.147 52.0498C125.931 47.1598 125.822 42.029 125.822 36.6572ZM131.242 51.9775C131.29 52.917 132.916 53.6517 136.12 54.1816C136.915 55.7715 136.867 57.3011 135.976 58.7705C125.762 58.4333 118.042 58.361 112.814 58.5537C111.923 57.1325 111.875 55.6751 112.67 54.1816C116.717 53.6517 118.764 52.917 118.812 51.9775C119.102 45.1123 119.126 38.223 118.885 31.3096C117.295 30.8278 115.103 30.5146 112.309 30.3701C111.755 28.9248 111.755 27.3952 112.309 25.7812C116.331 25.5404 120.595 24.4564 125.1 22.5293C127.701 22.8184 129.652 23.6012 130.953 24.8779C132.977 23.4085 134.795 22.6738 136.409 22.6738C138.288 22.6738 139.818 23.2279 140.998 24.3359C142.178 25.444 142.769 26.9857 142.769 28.9609C142.769 30.8398 142.215 32.3092 141.106 33.3691C139.998 34.429 138.577 34.959 136.843 34.959C135.229 34.959 133.88 34.417 132.796 33.333C131.808 34.6579 131.194 35.8623 130.953 36.9463C130.953 42.1735 131.049 47.1839 131.242 51.9775ZM166.399 26.5039C168.326 26.5039 169.724 27.1302 170.591 28.3828C171.458 29.6113 171.892 31.153 171.892 33.0078C171.892 33.7064 171.771 34.5013 171.53 35.3926H157.438C158.185 32.3815 159.39 30.1533 161.052 28.708C162.738 27.2386 164.521 26.5039 166.399 26.5039ZM157.077 37.8496H176.77C177.155 36.6452 177.348 35.4046 177.348 34.1279C177.348 31.3096 176.541 28.9489 174.927 27.0459C173.337 25.1188 170.796 24.1553 167.303 24.1553C162.75 24.1553 158.92 25.8053 155.812 29.1055C152.705 32.4056 151.151 36.597 151.151 41.6797C151.151 47.0996 152.633 51.1826 155.596 53.9287C158.559 56.6748 162.039 58.0479 166.038 58.0479C169.001 58.0479 171.747 57.2529 174.276 55.6631C176.83 54.0492 178.697 51.6283 179.877 48.4004C179.54 48.015 179.07 47.75 178.468 47.6055C178.371 47.75 178.082 48.1475 177.601 48.7979C177.143 49.4242 176.806 49.8818 176.589 50.1709C176.372 50.4359 175.975 50.8333 175.396 51.3633C174.842 51.8691 174.3 52.2425 173.771 52.4834C173.265 52.7243 172.614 52.9652 171.819 53.2061C171.024 53.4229 170.157 53.5312 169.218 53.5312C165.508 53.5312 162.557 52.4352 160.365 50.2432C158.173 48.027 157.029 45.0521 156.933 41.3184C156.933 40.4753 156.981 39.319 157.077 37.8496ZM177.89 45.9072C179.407 46.2445 180.636 47.0033 181.575 48.1836C180.202 51.9414 178.082 54.7718 175.216 56.6748C172.349 58.5778 169.29 59.5293 166.038 59.5293C161.606 59.5293 157.764 58.0358 154.512 55.0488C151.284 52.0618 149.67 47.6055 149.67 41.6797C149.67 36.3079 151.32 31.8034 154.62 28.166C157.944 24.5046 162.642 22.6738 168.712 22.6738C177.89 22.6738 182.479 26.4919 182.479 34.1279C182.479 35.6214 182.129 37.3558 181.431 39.3311H162.027V41.6797C162.148 44.5944 162.943 46.9671 164.412 48.7979C165.882 50.6045 167.905 51.6644 170.482 51.9775C172 51.833 173.253 51.3151 174.24 50.4238C175.228 49.5326 176.444 48.027 177.89 45.9072ZM170.41 33.0078C170.41 30.3581 169.519 28.7562 167.736 28.2021C165.617 28.8525 164.039 30.7555 163.003 33.9111H170.338C170.338 33.8148 170.35 33.6702 170.374 33.4775C170.398 33.2848 170.41 33.1283 170.41 33.0078ZM195.125 57.4336C193.969 57.819 192.837 58.2887 191.729 58.8428C190.596 58.1442 189.85 57.4336 189.488 56.7109C189.536 56.5664 189.609 56.0726 189.705 55.2295C189.801 54.3864 189.898 53.3988 189.994 52.2666C190.115 51.1344 190.211 49.9661 190.283 48.7617C190.355 47.5573 190.392 46.5335 190.392 45.6904C191.524 45.1605 193.27 44.8955 195.631 44.8955C195.896 44.8955 196.161 44.8955 196.426 44.8955C196.691 44.8955 196.968 44.9076 197.257 44.9316C198.991 50.5684 201.364 53.6276 204.375 54.1094C205.604 53.9167 206.543 53.471 207.193 52.7725C207.868 52.0498 208.205 51.2428 208.205 50.3516C208.205 49.7012 208.024 49.099 207.663 48.5449C207.302 47.9668 206.82 47.4368 206.218 46.9551C205.616 46.4733 204.905 46.0277 204.086 45.6182C203.291 45.2087 202.448 44.8112 201.557 44.4258C200.665 44.0163 199.762 43.6309 198.847 43.2695C197.931 42.8841 197.052 42.4867 196.209 42.0771C195.318 41.6676 194.475 41.1738 193.68 40.5957C192.885 39.9935 192.186 39.319 191.584 38.5723C190.982 37.8014 190.5 36.9583 190.139 36.043C189.801 35.1276 189.633 34.14 189.633 33.0801C189.633 31.9479 189.826 30.7676 190.211 29.5391C190.596 28.3105 191.259 27.1904 192.198 26.1787C193.138 25.167 194.402 24.3359 195.992 23.6855C197.582 23.0111 199.581 22.6738 201.99 22.6738C204.664 22.6738 206.639 22.8184 207.916 23.1074L209.253 22.6738H211.71C212.023 24.7214 212.396 26.6364 212.83 28.4189C213.288 30.2015 213.794 31.8636 214.348 33.4053C213.312 34.4411 212.059 34.959 210.59 34.959C209.771 33.9954 209.012 33.1283 208.313 32.3574C207.615 31.5625 206.94 30.876 206.29 30.2979C205.664 29.7197 205.037 29.25 204.411 28.8887C203.809 28.5273 203.183 28.2744 202.532 28.1299C200.942 28.3949 200.147 29.1175 200.147 30.2979C200.147 31.2373 200.557 32.0563 201.376 32.7549C202.195 33.4535 203.219 34.0918 204.447 34.6699C205.676 35.248 207.013 35.8021 208.458 36.332C209.927 36.8379 211.312 37.3799 212.613 37.958C213.553 38.3675 214.432 38.8975 215.251 39.5479C216.094 40.1982 216.829 40.957 217.455 41.8242C218.081 42.6673 218.575 43.6188 218.937 44.6787C219.298 45.7145 219.479 46.8346 219.479 48.0391C219.479 49.8216 219.021 51.4235 218.105 52.8447C217.214 54.266 216.022 55.4704 214.528 56.458C213.059 57.4456 211.373 58.2044 209.47 58.7344C207.567 59.2643 205.628 59.5293 203.652 59.5293C200.256 59.5293 197.413 58.8307 195.125 57.4336ZM203.399 58.0479C206.41 58.0479 208.988 57.1566 211.132 55.374C213.276 53.5915 214.348 51.5921 214.348 49.376C214.348 47.208 213.685 45.3411 212.36 43.7754C211.035 42.1855 209.434 40.957 207.555 40.0898C205.676 39.2227 203.785 38.4277 201.882 37.7051C199.979 36.9583 198.365 36.0911 197.04 35.1035C195.715 34.1159 195.053 32.9596 195.053 31.6348C195.053 29.9486 195.679 28.6719 196.932 27.8047C198.184 26.9375 199.654 26.5039 201.34 26.5039C203.122 26.5039 204.712 27.0579 206.109 28.166C207.507 29.2741 209.217 31.0446 211.24 33.4775C211.891 33.4775 212.36 33.321 212.649 33.0078C211.758 30.4544 210.433 28.3467 208.675 26.6846C206.94 24.9984 204.712 24.1553 201.99 24.1553C198.112 24.1553 195.33 25.0827 193.644 26.9375C191.957 28.7682 191.114 30.8158 191.114 33.0801C191.114 35.0072 191.753 36.6572 193.029 38.0303C194.33 39.3792 195.884 40.4271 197.69 41.1738C199.521 41.8965 201.34 42.6191 203.146 43.3418C204.953 44.0645 206.495 45.0039 207.771 46.1602C209.048 47.3164 209.687 48.7135 209.687 50.3516C209.687 51.7246 209.096 52.9531 207.916 54.0371C206.736 55.1211 205.086 55.6631 202.966 55.6631C200.412 55.6631 198.437 54.8561 197.04 53.2422C195.667 51.6042 194.511 49.3278 193.571 46.4131C192.728 46.4131 192.162 46.4854 191.873 46.6299C191.873 48.3643 191.789 50.3516 191.62 52.5918C191.451 54.832 191.283 56.1569 191.114 56.5664C191.283 56.8073 191.512 57.0241 191.801 57.2168C192.788 56.5182 193.547 55.7835 194.077 55.0127C196.197 56.193 197.847 56.988 199.027 57.3975C200.232 57.8311 201.689 58.0479 203.399 58.0479ZM242.64 26.5039C244.567 26.5039 245.964 27.1302 246.831 28.3828C247.698 29.6113 248.132 31.153 248.132 33.0078C248.132 33.7064 248.011 34.5013 247.771 35.3926H233.679C234.425 32.3815 235.63 30.1533 237.292 28.708C238.978 27.2386 240.761 26.5039 242.64 26.5039ZM233.317 37.8496H253.01C253.395 36.6452 253.588 35.4046 253.588 34.1279C253.588 31.3096 252.781 28.9489 251.167 27.0459C249.577 25.1188 247.036 24.1553 243.543 24.1553C238.99 24.1553 235.16 25.8053 232.053 29.1055C228.945 32.4056 227.392 36.597 227.392 41.6797C227.392 47.0996 228.873 51.1826 231.836 53.9287C234.799 56.6748 238.28 58.0479 242.278 58.0479C245.241 58.0479 247.987 57.2529 250.517 55.6631C253.07 54.0492 254.937 51.6283 256.117 48.4004C255.78 48.015 255.31 47.75 254.708 47.6055C254.612 47.75 254.323 48.1475 253.841 48.7979C253.383 49.4242 253.046 49.8818 252.829 50.1709C252.612 50.4359 252.215 50.8333 251.637 51.3633C251.083 51.8691 250.541 52.2425 250.011 52.4834C249.505 52.7243 248.854 52.9652 248.06 53.2061C247.265 53.4229 246.397 53.5312 245.458 53.5312C241.748 53.5312 238.798 52.4352 236.605 50.2432C234.413 48.027 233.269 45.0521 233.173 41.3184C233.173 40.4753 233.221 39.319 233.317 37.8496ZM254.13 45.9072C255.647 46.2445 256.876 47.0033 257.815 48.1836C256.442 51.9414 254.323 54.7718 251.456 56.6748C248.59 58.5778 245.53 59.5293 242.278 59.5293C237.846 59.5293 234.004 58.0358 230.752 55.0488C227.524 52.0618 225.91 47.6055 225.91 41.6797C225.91 36.3079 227.56 31.8034 230.86 28.166C234.185 24.5046 238.882 22.6738 244.952 22.6738C254.13 22.6738 258.719 26.4919 258.719 34.1279C258.719 35.6214 258.369 37.3558 257.671 39.3311H238.268V41.6797C238.388 44.5944 239.183 46.9671 240.652 48.7979C242.122 50.6045 244.145 51.6644 246.723 51.9775C248.24 51.833 249.493 51.3151 250.48 50.4238C251.468 49.5326 252.685 48.027 254.13 45.9072ZM246.65 33.0078C246.65 30.3581 245.759 28.7562 243.977 28.2021C241.857 28.8525 240.279 30.7555 239.243 33.9111H246.578C246.578 33.8148 246.59 33.6702 246.614 33.4775C246.638 33.2848 246.65 33.1283 246.65 33.0078ZM289.251 55.3379C288.962 55.8919 288.962 56.4821 289.251 57.1084C295.514 56.9639 301.789 56.9639 308.076 57.1084C308.413 56.5303 308.413 55.9401 308.076 55.3379C302.199 55.0488 299.236 53.8926 299.188 51.8691L298.826 33.6943C298.706 30.3942 298.164 27.9854 297.2 26.4678C296.261 24.9261 294.599 24.1553 292.214 24.1553C288.215 24.1553 283.458 26.9134 277.941 32.4297V25.2393C277.749 24.8538 277.327 24.5407 276.677 24.2998C273.328 25.8656 269.848 26.8532 266.234 27.2627C266.09 27.8408 266.09 28.4069 266.234 28.9609C269.005 29.1055 271.052 29.5993 272.377 30.4424C272.642 37.6449 272.642 44.7871 272.377 51.8691C272.329 53.6517 270.257 54.8079 266.162 55.3379C265.873 55.8919 265.873 56.4821 266.162 57.1084C272.425 56.8675 278.724 56.8675 285.06 57.1084C285.349 56.4821 285.349 55.8919 285.06 55.3379C280.555 54.8561 278.279 53.6999 278.23 51.8691C278.038 46.8587 277.941 41.1497 277.941 34.7422C282.783 30.4785 286.577 28.3467 289.323 28.3467C291.949 28.3467 293.262 30.5267 293.262 34.8867L293.189 51.8691C293.189 53.0495 292.828 53.8805 292.105 54.3623C291.383 54.82 290.431 55.1452 289.251 55.3379ZM288.095 58.373C287.493 56.9518 287.493 55.4945 288.095 54.001C288.866 54.001 289.66 53.7962 290.479 53.3867C291.299 52.9531 291.708 52.4473 291.708 51.8691L291.78 34.8867C291.78 32.2611 291.262 30.6592 290.227 30.0811C288.444 30.5146 286.047 31.8154 283.036 33.9834C283.036 40.6077 283.132 46.5456 283.325 51.7969C283.446 53.0736 284.409 53.8083 286.216 54.001C286.818 55.4945 286.818 56.9518 286.216 58.373C279.158 58.1322 272.064 58.1322 264.934 58.373C264.331 56.9518 264.331 55.4945 264.934 54.001C268.86 53.471 270.847 52.7363 270.896 51.7969C271.16 45.0039 271.16 38.1748 270.896 31.3096C269.282 30.8278 267.294 30.5146 264.934 30.3701C264.38 28.9248 264.38 27.3952 264.934 25.7812C268.571 25.5885 272.666 24.5046 277.219 22.5293C279.82 22.722 281.759 23.5049 283.036 24.8779V26.0703C286.457 23.806 290.383 22.6738 294.815 22.6738C298.067 22.6738 300.38 23.5651 301.753 25.3477C303.15 27.1061 303.873 29.8883 303.921 33.6943C304.017 43.2575 304.138 49.3158 304.282 51.8691C304.33 52.8568 306.029 53.5674 309.377 54.001C309.931 55.5908 309.883 57.0482 309.232 58.373C302.174 58.2285 295.129 58.2285 288.095 58.373ZM325.709 28.5273H339.909C340.246 27.5879 340.246 26.7207 339.909 25.9258H325.709V18.0127C325.107 17.7477 324.505 17.7477 323.902 18.0127C323.011 19.6748 322.023 21.1322 320.939 22.3848C319.855 23.6133 318.94 24.4805 318.193 24.9863C317.471 25.4681 316.423 26.0944 315.05 26.8652C314.881 27.3711 314.881 27.9251 315.05 28.5273H319.458V47.4609C319.458 54.5189 322.373 58.0479 328.202 58.0479C330.683 58.0479 332.972 57.4095 335.067 56.1328C337.163 54.832 338.729 53.2422 339.765 51.3633C339.548 50.8333 339.15 50.5443 338.572 50.4961C336.308 52.5195 334.116 53.5312 331.996 53.5312C327.805 53.5312 325.709 51.6283 325.709 47.8223V28.5273ZM338.139 48.9424C339.656 49.1351 340.74 49.9661 341.391 51.4355C340.138 53.724 338.319 55.639 335.935 57.1807C333.55 58.7464 330.972 59.5293 328.202 59.5293C321.409 59.5293 318.013 55.5065 318.013 47.4609V29.9727H313.568C313.207 28.696 313.207 27.3711 313.568 25.998C315.038 25.1549 316.158 24.4684 316.929 23.9385C317.7 23.3844 318.663 22.4932 319.819 21.2646C320.976 20.0361 321.999 18.5547 322.891 16.8203C325.155 15.8809 327.793 15.929 330.804 16.9648V24.4443H341.318C342.089 26.2269 342.089 28.0697 341.318 29.9727H330.804V47.8223C330.804 50.1348 331.635 51.4958 333.297 51.9053C334.742 51.5921 336.356 50.6045 338.139 48.9424ZM355.627 30.7314C356.759 30.9242 357.65 31.3698 358.301 32.0684C358.975 32.7428 359.312 33.61 359.312 34.6699C359.312 35.9466 358.891 37.0065 358.048 37.8496C357.205 38.6686 356.097 39.0781 354.724 39.0781C353.302 39.0781 352.014 38.5723 350.857 37.5605C349.701 36.5488 349.123 35.1156 349.123 33.2607C349.123 30.1051 350.617 27.5518 353.604 25.6006C356.615 23.6494 360.541 22.6738 365.383 22.6738C369.984 22.6738 373.212 23.6012 375.066 25.4561C376.945 27.2868 377.885 30.3822 377.885 34.7422V47.3887L380.197 47.3164C382.173 47.4609 383.546 48.4004 384.316 50.1348L383.16 52.1221C382.413 53.2542 381.787 54.1335 381.281 54.7598C380.799 55.362 380.101 56.0485 379.186 56.8193C378.27 57.5902 377.198 58.1442 375.97 58.4814C374.741 58.8187 373.308 58.9873 371.67 58.9873C369.646 58.9873 368.117 58.2285 367.081 56.7109C364.479 58.5898 361.083 59.5293 356.892 59.5293C355.061 59.5293 353.495 59.2402 352.194 58.6621C350.918 58.1081 349.978 57.3613 349.376 56.4219C348.798 55.4824 348.388 54.6032 348.147 53.7842C347.907 52.9652 347.786 52.1341 347.786 51.291C347.786 47.75 348.979 45.1003 351.363 43.3418C353.748 41.5833 358.566 39.7767 365.816 37.9219V33.9834C365.816 32.0563 365.407 30.6471 364.588 29.7559C363.793 28.8646 362.757 28.4189 361.48 28.4189C358.758 28.4189 356.807 29.1898 355.627 30.7314ZM367.298 41.3184V48.8701C364.985 51.9294 362.625 53.459 360.216 53.459C358.819 53.459 357.674 53.1217 356.783 52.4473C355.916 51.7728 355.482 50.8213 355.482 49.5928C355.482 47.6175 356.289 45.9915 357.903 44.7148C359.541 43.4382 362.673 42.306 367.298 41.3184ZM365.816 48.4004V43.9922C362.324 45.2689 360.577 47.1357 360.577 49.5928C360.577 50.6286 360.951 51.3512 361.697 51.7607C362.974 51.3031 364.347 50.1829 365.816 48.4004ZM354.724 35.8984C353.881 35.8984 353.29 35.2842 352.953 34.0557C352.471 32.0804 353.062 30.3581 354.724 28.8887C356.362 27.4434 358.831 26.7207 362.131 26.7207C363.697 26.7207 364.949 27.335 365.889 28.5635C366.828 29.7679 367.298 31.5745 367.298 33.9834V39.0059C360.192 40.8366 355.41 42.571 352.953 44.209C350.496 45.8229 349.268 48.1836 349.268 51.291C349.268 52.929 349.822 54.4707 350.93 55.916C352.038 57.3372 354.025 58.0479 356.892 58.0479C358.024 58.0479 359.084 57.8672 360.071 57.5059C361.083 57.1445 362.119 56.5664 363.179 55.7715C364.263 54.9525 364.925 54.4346 365.166 54.2178C365.407 54.001 365.804 53.6276 366.358 53.0977C366.937 52.5436 367.25 52.2425 367.298 52.1943C367.611 55.7354 369.068 57.5059 371.67 57.5059C372.32 57.5059 373.067 57.3372 373.91 57C374.753 56.6628 375.596 56.0003 376.439 55.0127C377.307 54.0251 377.849 53.3747 378.065 53.0615C378.306 52.7243 378.656 52.2064 379.113 51.5078C379.571 50.7852 379.908 50.2913 380.125 50.0264C379.812 49.3519 379.21 48.9665 378.318 48.8701C376.993 50.8936 375.645 51.8812 374.271 51.833C373.284 51.7848 372.79 51.0863 372.79 49.7373V34.7422C372.79 30.888 372.031 28.166 370.514 26.5762C369.02 24.9622 366.443 24.1553 362.781 24.1553C359.481 24.1553 356.615 25.0104 354.182 26.7207C351.773 28.4069 350.568 30.5869 350.568 33.2607C350.568 34.6338 350.99 35.7057 351.833 36.4766C352.676 37.2233 353.64 37.5967 354.724 37.5967C355.061 37.1149 355.061 36.5488 354.724 35.8984ZM396.638 65.9609L398.878 58.3369C397.384 57.7347 396.011 56.9398 394.759 55.9521C393.53 54.9645 392.47 53.7842 391.579 52.4111C390.688 51.014 390.001 49.4242 389.52 47.6416C389.038 45.859 388.797 43.8717 388.797 41.6797C388.797 38.8613 389.267 36.2839 390.206 33.9473C391.146 31.6107 392.434 29.6113 394.072 27.9492C395.71 26.263 397.637 24.9622 399.854 24.0469C402.094 23.1315 404.503 22.6738 407.08 22.6738C408.983 22.6738 410.729 22.9027 412.319 23.3604C413.909 23.818 415.27 24.4564 416.402 25.2754C417.559 26.0944 418.45 27.07 419.076 28.2021C419.727 29.3343 420.052 30.5749 420.052 31.9238C420.052 32.7669 419.895 33.5257 419.582 34.2002C419.293 34.8506 418.883 35.4167 418.354 35.8984C417.848 36.3802 417.233 36.7536 416.511 37.0186C415.788 37.2594 415.017 37.3799 414.198 37.3799C411.187 37.3799 409.682 36.055 409.682 33.4053C409.682 31.7432 410.717 30.5267 412.789 29.7559C411.416 28.8164 409.983 28.2744 408.489 28.1299C404.057 28.7803 401.841 33.2969 401.841 41.6797C401.841 47.9909 404.177 51.4235 408.851 51.9775C411.669 51.6162 414.415 49.6891 417.089 46.1963C418.679 46.3649 419.931 47.0273 420.847 48.1836C420.244 49.8216 419.462 51.3031 418.498 52.6279C417.559 53.9287 416.499 55.0488 415.318 55.9883C414.138 56.9277 412.861 57.6865 411.488 58.2646C410.115 58.8669 408.694 59.2643 407.225 59.457C408.453 59.457 409.561 59.6016 410.549 59.8906C411.561 60.2038 412.428 60.6374 413.15 61.1914C413.873 61.7695 414.427 62.4681 414.812 63.2871C415.198 64.1061 415.391 65.0456 415.391 66.1055C415.391 67.1654 415.162 68.165 414.704 69.1045C414.246 70.0439 413.596 70.875 412.753 71.5977C411.91 72.3203 410.886 72.8864 409.682 73.2959C408.501 73.7295 407.164 73.9463 405.671 73.9463C404.153 73.9463 402.816 73.8499 401.66 73.6572C400.504 73.4645 399.468 73.1634 398.553 72.7539C397.661 72.3685 396.867 71.8626 396.168 71.2363C395.493 70.61 394.867 69.8633 394.289 68.9961L396.638 65.9609ZM401.913 61.083L402.961 57.8311C403.78 57.9756 404.563 58.0479 405.31 58.0479C408.272 58.0479 411.019 57.2529 413.548 55.6631C416.101 54.0492 417.968 51.6283 419.148 48.4004C418.811 48.015 418.341 47.75 417.739 47.6055C417.113 48.4967 416.595 49.1592 416.186 49.5928C415.8 50.0023 415.162 50.5924 414.271 51.3633C413.379 52.11 412.38 52.6641 411.271 53.0254C410.163 53.3626 408.947 53.5312 407.622 53.5312C403.864 53.5312 401.106 52.4352 399.348 50.2432C397.613 48.027 396.746 45.1725 396.746 41.6797C396.746 31.5625 400.191 26.5039 407.08 26.5039C409.85 26.5039 412.03 26.9616 413.62 27.877C415.234 28.7923 416.041 30.1413 416.041 31.9238C416.041 33.3932 415.427 34.3086 414.198 34.6699C413.861 35.2962 413.861 35.8623 414.198 36.3682C415.427 36.3682 416.463 35.9466 417.306 35.1035C418.149 34.2604 418.57 33.2005 418.57 31.9238C418.57 29.6595 417.51 27.8047 415.391 26.3594C413.271 24.89 410.501 24.1553 407.08 24.1553C402.311 24.1553 398.312 25.7692 395.084 28.9971C391.88 32.2249 390.278 36.4525 390.278 41.6797C390.278 46.0156 391.266 49.4964 393.241 52.1221C395.216 54.7236 397.734 56.4701 400.793 57.3613L398.806 63.793C400.034 63.4557 401.19 63.2871 402.274 63.2871C404.587 63.2871 405.743 64.2747 405.743 66.25C405.743 67.2376 405.382 68.0446 404.659 68.6709C403.961 69.3213 403.021 69.6465 401.841 69.6465C399.769 69.6465 398.191 69.0804 397.107 67.9482L396.132 69.0684C397.625 71.3327 399.95 72.4648 403.105 72.4648C405.37 72.4648 407.128 71.8385 408.381 70.5859C409.633 69.3333 410.26 67.8398 410.26 66.1055C410.26 64.4193 409.802 63.1305 408.887 62.2393C407.995 61.3721 406.779 60.9385 405.237 60.9385C403.551 60.9385 402.443 60.9867 401.913 61.083ZM404.262 66.25C404.262 65.5996 403.949 65.154 403.322 64.9131C402.479 65.0576 401.263 65.3587 399.673 65.8164C400.781 66.9967 401.901 67.7074 403.033 67.9482C403.852 67.6592 404.262 67.0931 404.262 66.25ZM436.42 30.7314C437.552 30.9242 438.443 31.3698 439.094 32.0684C439.768 32.7428 440.105 33.61 440.105 34.6699C440.105 35.9466 439.684 37.0065 438.841 37.8496C437.998 38.6686 436.89 39.0781 435.517 39.0781C434.095 39.0781 432.807 38.5723 431.65 37.5605C430.494 36.5488 429.916 35.1156 429.916 33.2607C429.916 30.1051 431.41 27.5518 434.396 25.6006C437.408 23.6494 441.334 22.6738 446.176 22.6738C450.777 22.6738 454.005 23.6012 455.859 25.4561C457.738 27.2868 458.678 30.3822 458.678 34.7422V47.3887L460.99 47.3164C462.965 47.4609 464.339 48.4004 465.109 50.1348L463.953 52.1221C463.206 53.2542 462.58 54.1335 462.074 54.7598C461.592 55.362 460.894 56.0485 459.979 56.8193C459.063 57.5902 457.991 58.1442 456.763 58.4814C455.534 58.8187 454.101 58.9873 452.463 58.9873C450.439 58.9873 448.91 58.2285 447.874 56.7109C445.272 58.5898 441.876 59.5293 437.685 59.5293C435.854 59.5293 434.288 59.2402 432.987 58.6621C431.711 58.1081 430.771 57.3613 430.169 56.4219C429.591 55.4824 429.181 54.6032 428.94 53.7842C428.7 52.9652 428.579 52.1341 428.579 51.291C428.579 47.75 429.771 45.1003 432.156 43.3418C434.541 41.5833 439.359 39.7767 446.609 37.9219V33.9834C446.609 32.0563 446.2 30.6471 445.381 29.7559C444.586 28.8646 443.55 28.4189 442.273 28.4189C439.551 28.4189 437.6 29.1898 436.42 30.7314ZM448.091 41.3184V48.8701C445.778 51.9294 443.418 53.459 441.009 53.459C439.612 53.459 438.467 53.1217 437.576 52.4473C436.709 51.7728 436.275 50.8213 436.275 49.5928C436.275 47.6175 437.082 45.9915 438.696 44.7148C440.334 43.4382 443.466 42.306 448.091 41.3184ZM446.609 48.4004V43.9922C443.117 45.2689 441.37 47.1357 441.37 49.5928C441.37 50.6286 441.743 51.3512 442.49 51.7607C443.767 51.3031 445.14 50.1829 446.609 48.4004ZM435.517 35.8984C434.674 35.8984 434.083 35.2842 433.746 34.0557C433.264 32.0804 433.854 30.3581 435.517 28.8887C437.155 27.4434 439.624 26.7207 442.924 26.7207C444.49 26.7207 445.742 27.335 446.682 28.5635C447.621 29.7679 448.091 31.5745 448.091 33.9834V39.0059C440.985 40.8366 436.203 42.571 433.746 44.209C431.289 45.8229 430.061 48.1836 430.061 51.291C430.061 52.929 430.615 54.4707 431.723 55.916C432.831 57.3372 434.818 58.0479 437.685 58.0479C438.817 58.0479 439.877 57.8672 440.864 57.5059C441.876 57.1445 442.912 56.5664 443.972 55.7715C445.056 54.9525 445.718 54.4346 445.959 54.2178C446.2 54.001 446.597 53.6276 447.151 53.0977C447.729 52.5436 448.043 52.2425 448.091 52.1943C448.404 55.7354 449.861 57.5059 452.463 57.5059C453.113 57.5059 453.86 57.3372 454.703 57C455.546 56.6628 456.389 56.0003 457.232 55.0127C458.1 54.0251 458.642 53.3747 458.858 53.0615C459.099 52.7243 459.449 52.2064 459.906 51.5078C460.364 50.7852 460.701 50.2913 460.918 50.0264C460.605 49.3519 460.003 48.9665 459.111 48.8701C457.786 50.8936 456.438 51.8812 455.064 51.833C454.077 51.7848 453.583 51.0863 453.583 49.7373V34.7422C453.583 30.888 452.824 28.166 451.307 26.5762C449.813 24.9622 447.236 24.1553 443.574 24.1553C440.274 24.1553 437.408 25.0104 434.975 26.7207C432.566 28.4069 431.361 30.5869 431.361 33.2607C431.361 34.6338 431.783 35.7057 432.626 36.4766C433.469 37.2233 434.433 37.5967 435.517 37.5967C435.854 37.1149 435.854 36.5488 435.517 35.8984ZM456.148 8.5459H453.908C453.378 10.3044 452.15 11.1836 450.223 11.1836C449.476 11.1836 447.826 10.8223 445.272 10.0996C442.743 9.35286 440.912 8.97949 439.78 8.97949C436.528 8.97949 433.939 11.4004 432.012 16.2422H433.999C435.131 14.7487 436.492 14.002 438.082 14.002C439.166 14.002 440.804 14.3753 442.996 15.1221C445.188 15.8688 446.874 16.2422 448.055 16.2422C451.909 16.2422 454.607 13.6768 456.148 8.5459ZM452.788 7.06445H460.737C458.569 14.1706 455.209 17.7236 450.656 17.7236C448.247 17.7236 444.526 17.0732 439.491 15.7725C438.841 16.0856 438.118 16.736 437.323 17.7236H429.808C432.554 10.9066 435.878 7.49805 439.78 7.49805C442.045 7.49805 445.814 8.16048 451.09 9.48535C451.837 9.09993 452.403 8.29297 452.788 7.06445ZM486.608 26.5039C489.09 26.5039 491.053 27.6963 492.498 30.0811C493.967 32.4417 494.702 36.1152 494.702 41.1016C494.702 46.0879 493.967 49.7614 492.498 52.1221C491.053 54.4827 489.09 55.6631 486.608 55.6631C485.235 55.6631 483.983 55.374 482.851 54.7959C481.743 54.2178 480.791 53.3265 479.996 52.1221C479.225 50.9176 478.623 49.4121 478.189 47.6055C477.756 45.7747 477.539 43.6068 477.539 41.1016C477.539 38.6204 477.756 36.4645 478.189 34.6338C478.623 32.779 479.225 31.2614 479.996 30.0811C480.791 28.8766 481.743 27.9854 482.851 27.4072C483.983 26.805 485.235 26.5039 486.608 26.5039ZM486.608 58.0479C488.849 58.0479 490.86 57.6263 492.643 56.7832C494.425 55.9401 495.943 54.7718 497.195 53.2783C498.472 51.7607 499.448 49.9661 500.122 47.8945C500.797 45.8229 501.134 43.5586 501.134 41.1016C501.134 38.6445 500.797 36.3802 500.122 34.3086C499.448 32.237 498.472 30.4544 497.195 28.9609C495.943 27.4434 494.425 26.263 492.643 25.4199C490.86 24.5768 488.849 24.1553 486.608 24.1553C484.224 24.1553 482.068 24.5768 480.141 25.4199C478.214 26.263 476.576 27.4313 475.227 28.9248C473.902 30.4183 472.878 32.2129 472.155 34.3086C471.433 36.3802 471.071 38.6445 471.071 41.1016C471.071 43.5827 471.433 45.859 472.155 47.9307C472.878 50.0023 473.902 51.7969 475.227 53.3145C476.576 54.8079 478.214 55.9762 480.141 56.8193C482.068 57.6383 484.224 58.0479 486.608 58.0479ZM487.873 22.6738C490.788 22.6738 493.377 23.1195 495.642 24.0107C497.93 24.902 499.857 26.1667 501.423 27.8047C502.989 29.4186 504.181 31.3577 505 33.6221C505.819 35.8864 506.229 38.3796 506.229 41.1016C506.229 43.7995 505.819 46.2806 505 48.5449C504.181 50.8092 502.989 52.7604 501.423 54.3984C499.881 56.0124 497.966 57.265 495.678 58.1562C493.389 59.0716 490.788 59.5293 487.873 59.5293C484.982 59.5293 482.393 59.0716 480.104 58.1562C477.84 57.265 475.925 56.0124 474.359 54.3984C472.818 52.7604 471.637 50.8213 470.818 48.5811C469.999 46.3167 469.59 43.8236 469.59 41.1016C469.59 38.3796 469.999 35.8864 470.818 33.6221C471.637 31.3577 472.83 29.4186 474.396 27.8047C475.961 26.1667 477.876 24.902 480.141 24.0107C482.405 23.1195 484.982 22.6738 487.873 22.6738ZM482.634 41.1016C482.634 48.8822 484.38 53.194 487.873 54.0371C491.438 53.194 493.221 48.8822 493.221 41.1016C493.221 33.3932 491.438 29.0693 487.873 28.1299C484.38 29.0693 482.634 33.3932 482.634 41.1016ZM158.378 142.064L143.925 152.037C144.166 153.627 144.563 154.615 145.117 155H169.977L173.301 142.932C173.06 142.691 172.614 142.57 171.964 142.57C171.193 143.895 170.097 145.112 168.676 146.22C167.279 147.328 165.737 147.882 164.051 147.882H154.945V147.521L163.834 142.064C169.013 138.644 171.603 134.621 171.603 129.996C171.603 126.792 170.519 124.251 168.351 122.372C166.183 120.493 163.244 119.554 159.534 119.554C155.704 119.554 152.488 120.433 149.887 122.191C147.309 123.926 146.021 126.431 146.021 129.707C146.021 130.936 146.201 132.068 146.562 133.104C146.924 134.139 147.357 134.97 147.863 135.597C148.393 136.199 148.923 136.717 149.453 137.15C150.007 137.56 150.465 137.837 150.826 137.981L151.404 138.198C152.247 138.15 152.765 137.704 152.958 136.861C151.32 135.488 150.501 133.368 150.501 130.502C150.501 128.382 151.236 126.756 152.705 125.624C154.199 124.492 156.186 123.926 158.667 123.926C160.088 123.926 161.437 124.492 162.714 125.624C164.015 126.756 164.665 128.635 164.665 131.261C164.665 133.718 164.183 135.741 163.22 137.331C162.256 138.897 160.642 140.475 158.378 142.064ZM171.169 141.739C172.687 141.739 173.915 142.137 174.854 142.932L171.603 156.481H144.684C143.551 155.638 142.757 153.964 142.299 151.459L157.547 140.872C161.305 138.198 163.184 134.994 163.184 131.261C163.184 129.526 162.822 128.201 162.1 127.286C161.377 126.371 160.546 125.793 159.606 125.552C158.041 125.793 156.812 126.335 155.921 127.178C155.03 128.021 154.584 129.129 154.584 130.502C154.584 131.586 154.789 132.61 155.198 133.573C155.632 134.537 156.065 135.235 156.499 135.669L157.186 136.355C156.68 138.427 155.548 139.535 153.789 139.68H151.188C150.995 139.632 150.742 139.535 150.429 139.391C150.14 139.246 149.61 138.909 148.839 138.379C148.092 137.825 147.418 137.199 146.815 136.5C146.237 135.801 145.707 134.85 145.226 133.646C144.768 132.441 144.539 131.128 144.539 129.707C144.539 125.949 145.96 123.071 148.803 121.071C151.669 119.072 155.246 118.072 159.534 118.072C165.219 118.072 169.495 119.12 172.361 121.216C175.252 123.312 176.697 126.238 176.697 129.996C176.697 135.223 173.698 139.656 167.7 143.293L162.642 146.4H164.268C165.665 146.352 166.99 145.87 168.242 144.955C169.495 144.016 170.47 142.944 171.169 141.739ZM196.859 102.68C198.931 102.68 200.569 103.655 201.773 105.606C202.978 107.558 203.58 110.605 203.58 114.748C203.58 118.891 202.978 121.938 201.773 123.89C200.569 125.841 198.931 126.816 196.859 126.816C194.836 126.816 193.222 125.829 192.018 123.854C190.813 121.878 190.211 118.843 190.211 114.748C190.211 110.653 190.813 107.618 192.018 105.643C193.222 103.667 194.836 102.68 196.859 102.68ZM187.465 124.865C189.777 127.491 192.909 128.804 196.859 128.804C198.835 128.804 200.617 128.454 202.207 127.756C203.797 127.057 205.146 126.094 206.254 124.865C207.386 123.613 208.241 122.131 208.819 120.421C209.422 118.687 209.723 116.796 209.723 114.748C209.723 112.701 209.422 110.822 208.819 109.111C208.217 107.377 207.35 105.883 206.218 104.631C205.11 103.378 203.761 102.415 202.171 101.74C200.581 101.042 198.811 100.692 196.859 100.692C194.908 100.692 193.138 101.042 191.548 101.74C189.958 102.415 188.597 103.378 187.465 104.631C186.357 105.883 185.502 107.377 184.899 109.111C184.297 110.822 183.996 112.701 183.996 114.748C183.996 118.891 185.152 122.264 187.465 124.865ZM198.124 130.285C195.667 130.285 193.463 129.912 191.512 129.165C189.585 128.418 187.947 127.358 186.598 125.985C185.273 124.612 184.261 122.974 183.562 121.071C182.864 119.168 182.515 117.061 182.515 114.748C182.515 112.484 182.864 110.4 183.562 108.497C184.285 106.594 185.321 104.968 186.67 103.619C188.019 102.246 189.657 101.186 191.584 100.439C193.535 99.6686 195.739 99.2832 198.196 99.2832C200.581 99.2832 202.737 99.6566 204.664 100.403C206.591 101.126 208.229 102.162 209.578 103.511C210.951 104.86 211.999 106.486 212.722 108.389C213.444 110.292 213.806 112.411 213.806 114.748C213.806 117.061 213.456 119.168 212.758 121.071C212.083 122.974 211.072 124.612 209.723 125.985C208.398 127.358 206.76 128.418 204.809 129.165C202.882 129.912 200.653 130.285 198.124 130.285ZM194.258 114.748C194.258 120.818 195.547 124.275 198.124 125.118C200.774 124.275 202.099 120.818 202.099 114.748C202.099 108.774 200.774 105.317 198.124 104.378C195.547 105.293 194.258 108.75 194.258 114.748ZM294.96 153.519C293.611 153.446 292.298 153.35 291.021 153.229C289.769 153.085 288.625 152.892 287.589 152.651C286.553 152.41 285.674 152.097 284.951 151.712C284.253 151.302 283.795 150.797 283.578 150.194L263.597 100.837C263.187 100.861 262.79 101.03 262.404 101.343C262.236 104.33 261.32 106.727 259.658 108.533L260.489 110.665L245.241 149.002C244.278 151.411 241.315 152.916 236.353 153.519C236.208 153.856 236.136 154.157 236.136 154.422C236.136 154.711 236.208 155 236.353 155.289C239.099 155.193 241.303 155.12 242.965 155.072C244.651 155.024 245.807 155 246.434 155C246.988 155 248.24 155.024 250.191 155.072C252.167 155.12 254.84 155.193 258.213 155.289C258.357 155 258.43 154.711 258.43 154.422C258.43 154.157 258.357 153.856 258.213 153.519C256.214 153.326 254.588 153.121 253.335 152.904C252.082 152.663 251.107 152.41 250.408 152.146C249.71 151.881 249.24 151.591 248.999 151.278C248.758 150.941 248.638 150.568 248.638 150.158C248.638 149.893 248.686 149.628 248.782 149.363L254.058 136.139C256.731 136.09 258.887 136.054 260.525 136.03C262.188 136.006 263.332 135.994 263.958 135.994C265.331 135.994 266.548 136.006 267.607 136.03C268.691 136.03 269.619 136.042 270.39 136.066L275.629 149.363C275.749 149.725 275.81 150.002 275.81 150.194C275.81 150.845 275.472 151.423 274.798 151.929C274.147 152.435 273.34 152.784 272.377 152.977L268.475 153.519C268.33 153.856 268.258 154.157 268.258 154.422C268.258 154.711 268.33 155 268.475 155.289C270.522 155.217 272.594 155.157 274.689 155.108C276.809 155.06 278.977 155.036 281.193 155.036C283.41 155.036 285.65 155.06 287.914 155.108C290.202 155.157 292.551 155.217 294.96 155.289C295.129 154.952 295.213 154.663 295.213 154.422C295.213 154.277 295.189 154.133 295.141 153.988C295.092 153.844 295.032 153.687 294.96 153.519ZM263.958 133.176C260.465 133.176 257.587 133.128 255.322 133.031L262.188 115.326H262.332L269.233 133.104C267.933 133.152 266.174 133.176 263.958 133.176ZM262.26 119.12L257.454 131.622C260.369 131.767 263.573 131.791 267.065 131.694L262.26 119.12ZM296.08 152.182C296.682 153.627 296.658 155.157 296.008 156.771H267.354C266.776 155.108 266.776 153.579 267.354 152.182C269.98 152.037 271.835 151.772 272.919 151.387C274.003 150.977 274.376 150.327 274.039 149.436L269.306 137.476C264.849 137.307 260.08 137.355 254.997 137.62L250.336 149.58C250.191 149.99 250.3 150.363 250.661 150.7C251.047 151.013 251.661 151.266 252.504 151.459C253.347 151.652 254.335 151.808 255.467 151.929C256.599 152.049 257.876 152.133 259.297 152.182C259.899 153.627 259.875 155.157 259.225 156.771C251.324 156.481 243.362 156.481 235.341 156.771C234.69 155.157 234.666 153.627 235.269 152.182C240.231 151.604 243.037 150.52 243.688 148.93L258.936 110.593C258.839 110.4 258.646 109.966 258.357 109.292C258.092 108.593 257.936 108.136 257.888 107.919C259.767 106.016 260.802 103.559 260.995 100.548C263.115 99.512 265.608 98.9219 268.475 98.7773L288.745 149.074C289.203 150.206 289.925 150.965 290.913 151.351C291.901 151.712 293.623 151.989 296.08 152.182ZM324.589 153.338C324.3 153.892 324.3 154.482 324.589 155.108C330.852 154.964 337.127 154.964 343.414 155.108C343.751 154.53 343.751 153.94 343.414 153.338C337.536 153.049 334.574 151.893 334.525 149.869L334.164 131.694C334.044 128.394 333.502 125.985 332.538 124.468C331.599 122.926 329.937 122.155 327.552 122.155C323.553 122.155 318.796 124.913 313.279 130.43V123.239C313.087 122.854 312.665 122.541 312.015 122.3C308.666 123.866 305.186 124.853 301.572 125.263C301.428 125.841 301.428 126.407 301.572 126.961C304.342 127.105 306.39 127.599 307.715 128.442C307.98 135.645 307.98 142.787 307.715 149.869C307.667 151.652 305.595 152.808 301.5 153.338C301.211 153.892 301.211 154.482 301.5 155.108C307.763 154.868 314.062 154.868 320.397 155.108C320.687 154.482 320.687 153.892 320.397 153.338C315.893 152.856 313.617 151.7 313.568 149.869C313.376 144.859 313.279 139.15 313.279 132.742C318.121 128.479 321.915 126.347 324.661 126.347C327.287 126.347 328.6 128.527 328.6 132.887L328.527 149.869C328.527 151.049 328.166 151.881 327.443 152.362C326.721 152.82 325.769 153.145 324.589 153.338ZM323.433 156.373C322.83 154.952 322.83 153.494 323.433 152.001C324.203 152.001 324.998 151.796 325.817 151.387C326.636 150.953 327.046 150.447 327.046 149.869L327.118 132.887C327.118 130.261 326.6 128.659 325.564 128.081C323.782 128.515 321.385 129.815 318.374 131.983C318.374 138.608 318.47 144.546 318.663 149.797C318.784 151.074 319.747 151.808 321.554 152.001C322.156 153.494 322.156 154.952 321.554 156.373C314.496 156.132 307.402 156.132 300.271 156.373C299.669 154.952 299.669 153.494 300.271 152.001C304.198 151.471 306.185 150.736 306.233 149.797C306.498 143.004 306.498 136.175 306.233 129.31C304.619 128.828 302.632 128.515 300.271 128.37C299.717 126.925 299.717 125.395 300.271 123.781C303.909 123.589 308.004 122.505 312.557 120.529C315.158 120.722 317.097 121.505 318.374 122.878V124.07C321.795 121.806 325.721 120.674 330.153 120.674C333.405 120.674 335.718 121.565 337.091 123.348C338.488 125.106 339.211 127.888 339.259 131.694C339.355 141.257 339.476 147.316 339.62 149.869C339.668 150.857 341.367 151.567 344.715 152.001C345.269 153.591 345.221 155.048 344.57 156.373C337.512 156.229 330.466 156.229 323.433 156.373ZM366.937 124.504C369.418 124.504 371.381 125.696 372.826 128.081C374.296 130.442 375.03 134.115 375.03 139.102C375.03 144.088 374.296 147.761 372.826 150.122C371.381 152.483 369.418 153.663 366.937 153.663C365.563 153.663 364.311 153.374 363.179 152.796C362.071 152.218 361.119 151.326 360.324 150.122C359.553 148.918 358.951 147.412 358.518 145.605C358.084 143.775 357.867 141.607 357.867 139.102C357.867 136.62 358.084 134.465 358.518 132.634C358.951 130.779 359.553 129.261 360.324 128.081C361.119 126.877 362.071 125.985 363.179 125.407C364.311 124.805 365.563 124.504 366.937 124.504ZM366.937 156.048C369.177 156.048 371.188 155.626 372.971 154.783C374.753 153.94 376.271 152.772 377.523 151.278C378.8 149.761 379.776 147.966 380.45 145.895C381.125 143.823 381.462 141.559 381.462 139.102C381.462 136.645 381.125 134.38 380.45 132.309C379.776 130.237 378.8 128.454 377.523 126.961C376.271 125.443 374.753 124.263 372.971 123.42C371.188 122.577 369.177 122.155 366.937 122.155C364.552 122.155 362.396 122.577 360.469 123.42C358.542 124.263 356.904 125.431 355.555 126.925C354.23 128.418 353.206 130.213 352.483 132.309C351.761 134.38 351.399 136.645 351.399 139.102C351.399 141.583 351.761 143.859 352.483 145.931C353.206 148.002 354.23 149.797 355.555 151.314C356.904 152.808 358.542 153.976 360.469 154.819C362.396 155.638 364.552 156.048 366.937 156.048ZM368.201 120.674C371.116 120.674 373.705 121.119 375.97 122.011C378.258 122.902 380.185 124.167 381.751 125.805C383.317 127.419 384.509 129.358 385.328 131.622C386.147 133.886 386.557 136.38 386.557 139.102C386.557 141.799 386.147 144.281 385.328 146.545C384.509 148.809 383.317 150.76 381.751 152.398C380.209 154.012 378.294 155.265 376.006 156.156C373.717 157.072 371.116 157.529 368.201 157.529C365.311 157.529 362.721 157.072 360.433 156.156C358.168 155.265 356.253 154.012 354.688 152.398C353.146 150.76 351.965 148.821 351.146 146.581C350.327 144.317 349.918 141.824 349.918 139.102C349.918 136.38 350.327 133.886 351.146 131.622C351.965 129.358 353.158 127.419 354.724 125.805C356.289 124.167 358.204 122.902 360.469 122.011C362.733 121.119 365.311 120.674 368.201 120.674ZM362.962 139.102C362.962 146.882 364.708 151.194 368.201 152.037C371.766 151.194 373.549 146.882 373.549 139.102C373.549 131.393 371.766 127.069 368.201 126.13C364.708 127.069 362.962 131.393 362.962 139.102Z" fill="black"/>
</svg>
