<svg width="48" height="52" viewBox="0 0 48 52" fill="none" xmlns="http://www.w3.org/2000/svg">
<path d="M0.521188 27.838C0.521188 23.398 1.35985 19.476 3.03719 16.072C4.76385 12.668 7.05785 9.80667 9.91919 7.488C12.8299 5.12 16.0859 3.344 19.6872 2.16C23.3379 0.975999 27.1119 0.383999 31.0092 0.383999C33.3279 0.383999 35.4985 0.655332 37.5212 1.198C39.5439 1.74066 41.3445 2.43133 42.9232 3.27V1.568C42.9232 1.32133 43.0465 1.14866 43.2932 1.05C43.5399 0.951331 43.8112 0.901997 44.1072 0.901997C44.7485 0.901997 45.0692 1.124 45.0692 1.568C45.0692 3.39333 45.1185 5.24333 45.2172 7.118C45.3652 8.99266 45.5625 10.7933 45.8092 12.52C45.8585 12.7667 45.7599 12.964 45.5132 13.112C45.2665 13.2107 44.9705 13.26 44.6252 13.26C44.3292 13.26 44.0579 13.2107 43.8112 13.112C43.5645 12.964 43.4165 12.7667 43.3672 12.52L42.7752 9.042C40.7525 7.16733 38.6312 5.81066 36.4112 4.972C34.1912 4.13333 31.8479 3.714 29.3812 3.714C25.8785 3.714 22.6225 4.55266 19.6132 6.23C16.6039 7.90733 14.1865 10.3987 12.3612 13.704C10.5852 17.0093 9.69719 21.1533 9.69719 26.136C9.69719 31.168 10.6592 35.3613 12.5832 38.716C14.5072 42.0213 17.0479 44.5127 20.2052 46.19C23.3625 47.818 26.8159 48.632 30.5652 48.632C35.3999 48.632 39.9879 47.152 44.3292 44.192L44.7732 40.714C44.8719 40.1713 45.3159 39.9 46.1052 39.9C46.4012 39.9 46.6725 39.974 46.9192 40.122C47.1659 40.27 47.2645 40.4673 47.2152 40.714C46.9685 41.9967 46.7959 43.5507 46.6972 45.376C46.6479 47.152 46.6232 48.9773 46.6232 50.852C46.6232 51.2467 46.2532 51.444 45.5132 51.444C45.2172 51.444 44.9459 51.3947 44.6992 51.296C44.4525 51.1973 44.3292 51.0493 44.3292 50.852V49.076C39.5439 51 34.8079 51.962 30.1212 51.962C26.0759 51.962 22.2525 51.444 18.6512 50.408C15.0992 49.372 11.9419 47.8427 9.17919 45.82C6.46585 43.748 4.34452 41.2073 2.81519 38.198C1.28585 35.1887 0.521188 31.7353 0.521188 27.838Z" fill="black"/>
</svg>
