<svg width="451" height="169" viewBox="0 0 451 169" fill="none" xmlns="http://www.w3.org/2000/svg">
<path d="M403 111L450.5 167.5" stroke="black"/>
<path d="M397 168L450.5 110" stroke="black"/>
<path d="M82.5212 96.838C82.5212 92.398 83.3599 88.476 85.0372 85.072C86.7639 81.668 89.0579 78.8067 91.9192 76.488C94.8299 74.12 98.0859 72.344 101.687 71.16C105.338 69.976 109.112 69.384 113.009 69.384C115.328 69.384 117.499 69.6553 119.521 70.198C121.544 70.7407 123.345 71.4313 124.923 72.27V70.568C124.923 70.3213 125.047 70.1487 125.293 70.05C125.54 69.9513 125.811 69.902 126.107 69.902C126.749 69.902 127.069 70.124 127.069 70.568C127.069 72.3933 127.119 74.2433 127.217 76.118C127.365 77.9927 127.563 79.7933 127.809 81.52C127.859 81.7667 127.76 81.964 127.513 82.112C127.267 82.2107 126.971 82.26 126.625 82.26C126.329 82.26 126.058 82.2107 125.811 82.112C125.565 81.964 125.417 81.7667 125.367 81.52L124.775 78.042C122.753 76.1673 120.631 74.8107 118.411 73.972C116.191 73.1333 113.848 72.714 111.381 72.714C107.879 72.714 104.623 73.5527 101.613 75.23C98.6039 76.9073 96.1865 79.3987 94.3612 82.704C92.5852 86.0093 91.6972 90.1533 91.6972 95.136C91.6972 100.168 92.6592 104.361 94.5832 107.716C96.5072 111.021 99.0479 113.513 102.205 115.19C105.363 116.818 108.816 117.632 112.565 117.632C117.4 117.632 121.988 116.152 126.329 113.192L126.773 109.714C126.872 109.171 127.316 108.9 128.105 108.9C128.401 108.9 128.673 108.974 128.919 109.122C129.166 109.27 129.265 109.467 129.215 109.714C128.969 110.997 128.796 112.551 128.697 114.376C128.648 116.152 128.623 117.977 128.623 119.852C128.623 120.247 128.253 120.444 127.513 120.444C127.217 120.444 126.946 120.395 126.699 120.296C126.453 120.197 126.329 120.049 126.329 119.852V118.076C121.544 120 116.808 120.962 112.121 120.962C108.076 120.962 104.253 120.444 100.651 119.408C97.0992 118.372 93.9419 116.843 91.1792 114.82C88.4659 112.748 86.3445 110.207 84.8152 107.198C83.2859 104.189 82.5212 100.735 82.5212 96.838Z" fill="black"/>
<path d="M286.521 96.838C286.521 92.398 287.36 88.476 289.037 85.072C290.764 81.668 293.058 78.8067 295.919 76.488C298.83 74.12 302.086 72.344 305.687 71.16C309.338 69.976 313.112 69.384 317.009 69.384C319.328 69.384 321.499 69.6553 323.521 70.198C325.544 70.7407 327.345 71.4313 328.923 72.27V70.568C328.923 70.3213 329.047 70.1487 329.293 70.05C329.54 69.9513 329.811 69.902 330.107 69.902C330.749 69.902 331.069 70.124 331.069 70.568C331.069 72.3933 331.119 74.2433 331.217 76.118C331.365 77.9927 331.563 79.7933 331.809 81.52C331.859 81.7667 331.76 81.964 331.513 82.112C331.267 82.2107 330.971 82.26 330.625 82.26C330.329 82.26 330.058 82.2107 329.811 82.112C329.565 81.964 329.417 81.7667 329.367 81.52L328.775 78.042C326.753 76.1673 324.631 74.8107 322.411 73.972C320.191 73.1333 317.848 72.714 315.381 72.714C311.879 72.714 308.623 73.5527 305.613 75.23C302.604 76.9073 300.187 79.3987 298.361 82.704C296.585 86.0093 295.697 90.1533 295.697 95.136C295.697 100.168 296.659 104.361 298.583 107.716C300.507 111.021 303.048 113.513 306.205 115.19C309.363 116.818 312.816 117.632 316.565 117.632C321.4 117.632 325.988 116.152 330.329 113.192L330.773 109.714C330.872 109.171 331.316 108.9 332.105 108.9C332.401 108.9 332.673 108.974 332.919 109.122C333.166 109.27 333.265 109.467 333.215 109.714C332.969 110.997 332.796 112.551 332.697 114.376C332.648 116.152 332.623 117.977 332.623 119.852C332.623 120.247 332.253 120.444 331.513 120.444C331.217 120.444 330.946 120.395 330.699 120.296C330.453 120.197 330.329 120.049 330.329 119.852V118.076C325.544 120 320.808 120.962 316.121 120.962C312.076 120.962 308.253 120.444 304.651 119.408C301.099 118.372 297.942 116.843 295.179 114.82C292.466 112.748 290.345 110.207 288.815 107.198C287.286 104.189 286.521 100.735 286.521 96.838Z" fill="black"/>
<path d="M163 120H262" stroke="black"/>
<path d="M358 70L403 50" stroke="black"/>
<path d="M283 60L247 30" stroke="black"/>
<path d="M34 139L79 119" stroke="black"/>
<path d="M79 70L34 60" stroke="black"/>
<path d="M358 119L403 129" stroke="black"/>
<path d="M163 68H262" stroke="black"/>
<path d="M432.076 145.128C432.076 145.939 432.108 146.547 432.172 146.952C432.258 147.357 432.354 147.624 432.46 147.752C432.567 147.88 432.663 147.944 432.748 147.944H434.604C434.775 147.944 434.86 148.147 434.86 148.552C434.86 148.637 434.839 148.733 434.796 148.84C434.775 148.947 434.711 149 434.604 149C433.943 149 433.26 149 432.556 149C431.874 148.979 431.212 148.968 430.572 148.968C429.676 148.968 428.962 148.979 428.428 149C427.895 149 427.458 149.011 427.116 149.032C426.775 149.053 426.434 149.064 426.092 149.064C426.007 149.064 425.943 149.011 425.9 148.904C425.858 148.797 425.836 148.68 425.836 148.552C425.836 148.403 425.858 148.275 425.9 148.168C425.943 148.04 426.007 147.976 426.092 147.976H427.468C428.023 147.976 428.375 147.869 428.524 147.656C428.695 147.443 428.78 147.059 428.78 146.504V138.952H417.356V145.128C417.356 145.939 417.388 146.547 417.452 146.952C417.538 147.357 417.634 147.624 417.74 147.752C417.847 147.88 417.943 147.944 418.028 147.944H419.884C420.055 147.944 420.14 148.147 420.14 148.552C420.14 148.637 420.119 148.733 420.076 148.84C420.055 148.947 419.991 149 419.884 149C419.223 149 418.54 149 417.836 149C417.154 148.979 416.492 148.968 415.852 148.968C414.956 148.968 414.242 148.979 413.708 149C413.175 149 412.738 149.011 412.396 149.032C412.055 149.053 411.714 149.064 411.372 149.064C411.287 149.064 411.223 149.011 411.18 148.904C411.138 148.797 411.116 148.68 411.116 148.552C411.116 148.403 411.138 148.275 411.18 148.168C411.223 148.04 411.287 147.976 411.372 147.976H412.748C413.303 147.976 413.655 147.869 413.804 147.656C413.975 147.443 414.06 147.059 414.06 146.504V131.336C414.06 130.504 414.018 129.896 413.932 129.512C413.868 129.107 413.783 128.84 413.676 128.712C413.591 128.584 413.495 128.52 413.388 128.52H411.532C411.362 128.52 411.276 128.317 411.276 127.912C411.276 127.805 411.287 127.709 411.308 127.624C411.351 127.517 411.426 127.464 411.532 127.464C412.215 127.464 412.898 127.475 413.58 127.496C414.263 127.496 414.924 127.496 415.564 127.496C416.482 127.496 417.196 127.496 417.708 127.496C418.242 127.475 418.679 127.453 419.02 127.432C419.362 127.411 419.703 127.4 420.044 127.4C420.151 127.4 420.215 127.453 420.236 127.56C420.279 127.667 420.3 127.784 420.3 127.912C420.3 128.061 420.279 128.2 420.236 128.328C420.194 128.435 420.13 128.488 420.044 128.488H418.668C418.135 128.488 417.783 128.595 417.612 128.808C417.442 129.021 417.356 129.405 417.356 129.96V137.64H428.78V131.336C428.78 130.504 428.738 129.896 428.652 129.512C428.588 129.107 428.503 128.84 428.396 128.712C428.311 128.584 428.215 128.52 428.108 128.52H426.252C426.082 128.52 425.996 128.317 425.996 127.912C425.996 127.805 426.007 127.709 426.028 127.624C426.071 127.517 426.146 127.464 426.252 127.464C426.935 127.464 427.618 127.475 428.3 127.496C428.983 127.496 429.644 127.496 430.284 127.496C431.202 127.496 431.916 127.496 432.428 127.496C432.962 127.475 433.399 127.453 433.74 127.432C434.082 127.411 434.423 127.4 434.764 127.4C434.871 127.4 434.935 127.453 434.956 127.56C434.999 127.667 435.02 127.784 435.02 127.912C435.02 128.061 434.999 128.2 434.956 128.328C434.914 128.435 434.85 128.488 434.764 128.488H433.388C432.855 128.488 432.503 128.595 432.332 128.808C432.162 129.021 432.076 129.405 432.076 129.96V145.128Z" fill="black"/>
<path d="M242.076 26.128C242.076 26.9387 242.108 27.5467 242.172 27.952C242.258 28.3573 242.354 28.624 242.46 28.752C242.567 28.88 242.663 28.944 242.748 28.944H244.604C244.775 28.944 244.86 29.1467 244.86 29.552C244.86 29.6373 244.839 29.7333 244.796 29.84C244.775 29.9467 244.711 30 244.604 30C243.943 30 243.26 30 242.556 30C241.874 29.9787 241.212 29.968 240.572 29.968C239.676 29.968 238.962 29.9787 238.428 30C237.895 30 237.458 30.0107 237.116 30.032C236.775 30.0533 236.434 30.064 236.092 30.064C236.007 30.064 235.943 30.0107 235.9 29.904C235.858 29.7973 235.836 29.68 235.836 29.552C235.836 29.4027 235.858 29.2747 235.9 29.168C235.943 29.04 236.007 28.976 236.092 28.976H237.468C238.023 28.976 238.375 28.8693 238.524 28.656C238.695 28.4427 238.78 28.0587 238.78 27.504V19.952H227.356V26.128C227.356 26.9387 227.388 27.5467 227.452 27.952C227.538 28.3573 227.634 28.624 227.74 28.752C227.847 28.88 227.943 28.944 228.028 28.944H229.884C230.055 28.944 230.14 29.1467 230.14 29.552C230.14 29.6373 230.119 29.7333 230.076 29.84C230.055 29.9467 229.991 30 229.884 30C229.223 30 228.54 30 227.836 30C227.154 29.9787 226.492 29.968 225.852 29.968C224.956 29.968 224.242 29.9787 223.708 30C223.175 30 222.738 30.0107 222.396 30.032C222.055 30.0533 221.714 30.064 221.372 30.064C221.287 30.064 221.223 30.0107 221.18 29.904C221.138 29.7973 221.116 29.68 221.116 29.552C221.116 29.4027 221.138 29.2747 221.18 29.168C221.223 29.04 221.287 28.976 221.372 28.976H222.748C223.303 28.976 223.655 28.8693 223.804 28.656C223.975 28.4427 224.06 28.0587 224.06 27.504V12.336C224.06 11.504 224.018 10.896 223.932 10.512C223.868 10.1067 223.783 9.84 223.676 9.712C223.591 9.584 223.495 9.52 223.388 9.52H221.532C221.362 9.52 221.276 9.31733 221.276 8.912C221.276 8.80533 221.287 8.70933 221.308 8.624C221.351 8.51733 221.426 8.464 221.532 8.464C222.215 8.464 222.898 8.47467 223.58 8.496C224.263 8.496 224.924 8.496 225.564 8.496C226.482 8.496 227.196 8.496 227.708 8.496C228.242 8.47467 228.679 8.45333 229.02 8.432C229.362 8.41067 229.703 8.4 230.044 8.4C230.151 8.4 230.215 8.45333 230.236 8.56C230.279 8.66667 230.3 8.784 230.3 8.912C230.3 9.06133 230.279 9.2 230.236 9.328C230.194 9.43467 230.13 9.488 230.044 9.488H228.668C228.135 9.488 227.783 9.59467 227.612 9.808C227.442 10.0213 227.356 10.4053 227.356 10.96V18.64H238.78V12.336C238.78 11.504 238.738 10.896 238.652 10.512C238.588 10.1067 238.503 9.84 238.396 9.712C238.311 9.584 238.215 9.52 238.108 9.52H236.252C236.082 9.52 235.996 9.31733 235.996 8.912C235.996 8.80533 236.007 8.70933 236.028 8.624C236.071 8.51733 236.146 8.464 236.252 8.464C236.935 8.464 237.618 8.47467 238.3 8.496C238.983 8.496 239.644 8.496 240.284 8.496C241.202 8.496 241.916 8.496 242.428 8.496C242.962 8.47467 243.399 8.45333 243.74 8.432C244.082 8.41067 244.423 8.4 244.764 8.4C244.871 8.4 244.935 8.45333 244.956 8.56C244.999 8.66667 245.02 8.784 245.02 8.912C245.02 9.06133 244.999 9.2 244.956 9.328C244.914 9.43467 244.85 9.488 244.764 9.488H243.388C242.855 9.488 242.503 9.59467 242.332 9.808C242.162 10.0213 242.076 10.4053 242.076 10.96V26.128Z" fill="black"/>
<path d="M23.0764 150.128C23.0764 150.939 23.1084 151.547 23.1724 151.952C23.2577 152.357 23.3537 152.624 23.4604 152.752C23.567 152.88 23.663 152.944 23.7484 152.944H25.6044C25.775 152.944 25.8604 153.147 25.8604 153.552C25.8604 153.637 25.839 153.733 25.7964 153.84C25.775 153.947 25.711 154 25.6044 154C24.943 154 24.2604 154 23.5564 154C22.8737 153.979 22.2124 153.968 21.5724 153.968C20.6764 153.968 19.9617 153.979 19.4284 154C18.895 154 18.4577 154.011 18.1164 154.032C17.775 154.053 17.4337 154.064 17.0924 154.064C17.007 154.064 16.943 154.011 16.9004 153.904C16.8577 153.797 16.8364 153.68 16.8364 153.552C16.8364 153.403 16.8577 153.275 16.9004 153.168C16.943 153.04 17.007 152.976 17.0924 152.976H18.4684C19.023 152.976 19.375 152.869 19.5244 152.656C19.695 152.443 19.7804 152.059 19.7804 151.504V143.952H8.35638V150.128C8.35638 150.939 8.38838 151.547 8.45238 151.952C8.53771 152.357 8.63371 152.624 8.74038 152.752C8.84704 152.88 8.94304 152.944 9.02838 152.944H10.8844C11.055 152.944 11.1404 153.147 11.1404 153.552C11.1404 153.637 11.119 153.733 11.0764 153.84C11.055 153.947 10.991 154 10.8844 154C10.223 154 9.54038 154 8.83638 154C8.15371 153.979 7.49238 153.968 6.85238 153.968C5.95638 153.968 5.24171 153.979 4.70837 154C4.17504 154 3.73771 154.011 3.39638 154.032C3.05504 154.053 2.71371 154.064 2.37238 154.064C2.28704 154.064 2.22304 154.011 2.18038 153.904C2.13771 153.797 2.11638 153.68 2.11638 153.552C2.11638 153.403 2.13771 153.275 2.18038 153.168C2.22304 153.04 2.28704 152.976 2.37238 152.976H3.74838C4.30304 152.976 4.65504 152.869 4.80438 152.656C4.97504 152.443 5.06038 152.059 5.06038 151.504V136.336C5.06038 135.504 5.01771 134.896 4.93238 134.512C4.86838 134.107 4.78304 133.84 4.67638 133.712C4.59104 133.584 4.49504 133.52 4.38838 133.52H2.53238C2.36171 133.52 2.27638 133.317 2.27638 132.912C2.27638 132.805 2.28704 132.709 2.30838 132.624C2.35104 132.517 2.42571 132.464 2.53238 132.464C3.21504 132.464 3.89771 132.475 4.58038 132.496C5.26304 132.496 5.92438 132.496 6.56438 132.496C7.48171 132.496 8.19638 132.496 8.70837 132.496C9.24171 132.475 9.67904 132.453 10.0204 132.432C10.3617 132.411 10.703 132.4 11.0444 132.4C11.151 132.4 11.215 132.453 11.2364 132.56C11.279 132.667 11.3004 132.784 11.3004 132.912C11.3004 133.061 11.279 133.2 11.2364 133.328C11.1937 133.435 11.1297 133.488 11.0444 133.488H9.66838C9.13504 133.488 8.78304 133.595 8.61238 133.808C8.44171 134.021 8.35638 134.405 8.35638 134.96V142.64H19.7804V136.336C19.7804 135.504 19.7377 134.896 19.6524 134.512C19.5884 134.107 19.503 133.84 19.3964 133.712C19.311 133.584 19.215 133.52 19.1084 133.52H17.2524C17.0817 133.52 16.9964 133.317 16.9964 132.912C16.9964 132.805 17.007 132.709 17.0284 132.624C17.071 132.517 17.1457 132.464 17.2524 132.464C17.935 132.464 18.6177 132.475 19.3004 132.496C19.983 132.496 20.6444 132.496 21.2844 132.496C22.2017 132.496 22.9164 132.496 23.4284 132.496C23.9617 132.475 24.399 132.453 24.7404 132.432C25.0817 132.411 25.423 132.4 25.7644 132.4C25.871 132.4 25.935 132.453 25.9564 132.56C25.999 132.667 26.0204 132.784 26.0204 132.912C26.0204 133.061 25.999 133.2 25.9564 133.328C25.9137 133.435 25.8497 133.488 25.7644 133.488H24.3884C23.855 133.488 23.503 133.595 23.3324 133.808C23.1617 134.021 23.0764 134.405 23.0764 134.96V150.128Z" fill="black"/>
<path d="M29.0764 56.128C29.0764 56.9387 29.1084 57.5467 29.1724 57.952C29.2577 58.3573 29.3537 58.624 29.4604 58.752C29.567 58.88 29.663 58.944 29.7484 58.944H31.6044C31.775 58.944 31.8604 59.1467 31.8604 59.552C31.8604 59.6373 31.839 59.7333 31.7964 59.84C31.775 59.9467 31.711 60 31.6044 60C30.943 60 30.2604 60 29.5564 60C28.8737 59.9787 28.2124 59.968 27.5724 59.968C26.6764 59.968 25.9617 59.9787 25.4284 60C24.895 60 24.4577 60.0107 24.1164 60.032C23.775 60.0533 23.4337 60.064 23.0924 60.064C23.007 60.064 22.943 60.0107 22.9004 59.904C22.8577 59.7973 22.8364 59.68 22.8364 59.552C22.8364 59.4027 22.8577 59.2747 22.9004 59.168C22.943 59.04 23.007 58.976 23.0924 58.976H24.4684C25.023 58.976 25.375 58.8693 25.5244 58.656C25.695 58.4427 25.7804 58.0587 25.7804 57.504V49.952H14.3564V56.128C14.3564 56.9387 14.3884 57.5467 14.4524 57.952C14.5377 58.3573 14.6337 58.624 14.7404 58.752C14.847 58.88 14.943 58.944 15.0284 58.944H16.8844C17.055 58.944 17.1404 59.1467 17.1404 59.552C17.1404 59.6373 17.119 59.7333 17.0764 59.84C17.055 59.9467 16.991 60 16.8844 60C16.223 60 15.5404 60 14.8364 60C14.1537 59.9787 13.4924 59.968 12.8524 59.968C11.9564 59.968 11.2417 59.9787 10.7084 60C10.175 60 9.73771 60.0107 9.39638 60.032C9.05504 60.0533 8.71371 60.064 8.37238 60.064C8.28704 60.064 8.22304 60.0107 8.18038 59.904C8.13771 59.7973 8.11638 59.68 8.11638 59.552C8.11638 59.4027 8.13771 59.2747 8.18038 59.168C8.22304 59.04 8.28704 58.976 8.37238 58.976H9.74838C10.303 58.976 10.655 58.8693 10.8044 58.656C10.975 58.4427 11.0604 58.0587 11.0604 57.504V42.336C11.0604 41.504 11.0177 40.896 10.9324 40.512C10.8684 40.1067 10.783 39.84 10.6764 39.712C10.591 39.584 10.495 39.52 10.3884 39.52H8.53238C8.36171 39.52 8.27638 39.3173 8.27638 38.912C8.27638 38.8053 8.28704 38.7093 8.30838 38.624C8.35104 38.5173 8.42571 38.464 8.53238 38.464C9.21504 38.464 9.89771 38.4747 10.5804 38.496C11.263 38.496 11.9244 38.496 12.5644 38.496C13.4817 38.496 14.1964 38.496 14.7084 38.496C15.2417 38.4747 15.679 38.4533 16.0204 38.432C16.3617 38.4107 16.703 38.4 17.0444 38.4C17.151 38.4 17.215 38.4533 17.2364 38.56C17.279 38.6667 17.3004 38.784 17.3004 38.912C17.3004 39.0613 17.279 39.2 17.2364 39.328C17.1937 39.4347 17.1297 39.488 17.0444 39.488H15.6684C15.135 39.488 14.783 39.5947 14.6124 39.808C14.4417 40.0213 14.3564 40.4053 14.3564 40.96V48.64H25.7804V42.336C25.7804 41.504 25.7377 40.896 25.6524 40.512C25.5884 40.1067 25.503 39.84 25.3964 39.712C25.311 39.584 25.215 39.52 25.1084 39.52H23.2524C23.0817 39.52 22.9964 39.3173 22.9964 38.912C22.9964 38.8053 23.007 38.7093 23.0284 38.624C23.071 38.5173 23.1457 38.464 23.2524 38.464C23.935 38.464 24.6177 38.4747 25.3004 38.496C25.983 38.496 26.6444 38.496 27.2844 38.496C28.2017 38.496 28.9164 38.496 29.4284 38.496C29.9617 38.4747 30.399 38.4533 30.7404 38.432C31.0817 38.4107 31.423 38.4 31.7644 38.4C31.871 38.4 31.935 38.4533 31.9564 38.56C31.999 38.6667 32.0204 38.784 32.0204 38.912C32.0204 39.0613 31.999 39.2 31.9564 39.328C31.9137 39.4347 31.8497 39.488 31.7644 39.488H30.3884C29.855 39.488 29.503 39.5947 29.3324 39.808C29.1617 40.0213 29.0764 40.4053 29.0764 40.96V56.128Z" fill="black"/>
<path d="M432.076 52.128C432.076 52.9387 432.108 53.5467 432.172 53.952C432.258 54.3573 432.354 54.624 432.46 54.752C432.567 54.88 432.663 54.944 432.748 54.944H434.604C434.775 54.944 434.86 55.1467 434.86 55.552C434.86 55.6373 434.839 55.7333 434.796 55.84C434.775 55.9467 434.711 56 434.604 56C433.943 56 433.26 56 432.556 56C431.874 55.9787 431.212 55.968 430.572 55.968C429.676 55.968 428.962 55.9787 428.428 56C427.895 56 427.458 56.0107 427.116 56.032C426.775 56.0533 426.434 56.064 426.092 56.064C426.007 56.064 425.943 56.0107 425.9 55.904C425.858 55.7973 425.836 55.68 425.836 55.552C425.836 55.4027 425.858 55.2747 425.9 55.168C425.943 55.04 426.007 54.976 426.092 54.976H427.468C428.023 54.976 428.375 54.8693 428.524 54.656C428.695 54.4427 428.78 54.0587 428.78 53.504V45.952H417.356V52.128C417.356 52.9387 417.388 53.5467 417.452 53.952C417.538 54.3573 417.634 54.624 417.74 54.752C417.847 54.88 417.943 54.944 418.028 54.944H419.884C420.055 54.944 420.14 55.1467 420.14 55.552C420.14 55.6373 420.119 55.7333 420.076 55.84C420.055 55.9467 419.991 56 419.884 56C419.223 56 418.54 56 417.836 56C417.154 55.9787 416.492 55.968 415.852 55.968C414.956 55.968 414.242 55.9787 413.708 56C413.175 56 412.738 56.0107 412.396 56.032C412.055 56.0533 411.714 56.064 411.372 56.064C411.287 56.064 411.223 56.0107 411.18 55.904C411.138 55.7973 411.116 55.68 411.116 55.552C411.116 55.4027 411.138 55.2747 411.18 55.168C411.223 55.04 411.287 54.976 411.372 54.976H412.748C413.303 54.976 413.655 54.8693 413.804 54.656C413.975 54.4427 414.06 54.0587 414.06 53.504V38.336C414.06 37.504 414.018 36.896 413.932 36.512C413.868 36.1067 413.783 35.84 413.676 35.712C413.591 35.584 413.495 35.52 413.388 35.52H411.532C411.362 35.52 411.276 35.3173 411.276 34.912C411.276 34.8053 411.287 34.7093 411.308 34.624C411.351 34.5173 411.426 34.464 411.532 34.464C412.215 34.464 412.898 34.4747 413.58 34.496C414.263 34.496 414.924 34.496 415.564 34.496C416.482 34.496 417.196 34.496 417.708 34.496C418.242 34.4747 418.679 34.4533 419.02 34.432C419.362 34.4107 419.703 34.4 420.044 34.4C420.151 34.4 420.215 34.4533 420.236 34.56C420.279 34.6667 420.3 34.784 420.3 34.912C420.3 35.0613 420.279 35.2 420.236 35.328C420.194 35.4347 420.13 35.488 420.044 35.488H418.668C418.135 35.488 417.783 35.5947 417.612 35.808C417.442 36.0213 417.356 36.4053 417.356 36.96V44.64H428.78V38.336C428.78 37.504 428.738 36.896 428.652 36.512C428.588 36.1067 428.503 35.84 428.396 35.712C428.311 35.584 428.215 35.52 428.108 35.52H426.252C426.082 35.52 425.996 35.3173 425.996 34.912C425.996 34.8053 426.007 34.7093 426.028 34.624C426.071 34.5173 426.146 34.464 426.252 34.464C426.935 34.464 427.618 34.4747 428.3 34.496C428.983 34.496 429.644 34.496 430.284 34.496C431.202 34.496 431.916 34.496 432.428 34.496C432.962 34.4747 433.399 34.4533 433.74 34.432C434.082 34.4107 434.423 34.4 434.764 34.4C434.871 34.4 434.935 34.4533 434.956 34.56C434.999 34.6667 435.02 34.784 435.02 34.912C435.02 35.0613 434.999 35.2 434.956 35.328C434.914 35.4347 434.85 35.488 434.764 35.488H433.388C432.855 35.488 432.503 35.5947 432.332 35.808C432.162 36.0213 432.076 36.4053 432.076 36.96V52.128Z" fill="black"/>
</svg>
